HIERARCHY
ROOT Joint1
{
	OFFSET 0.000000 0.000000 0.000000
	CHANNELS 6 Xposition Yposition Zposition Xrotation Yrotation Zrotation
	JOINT Joint2
	{
		OFFSET -0.000000 0.000000 1.456275
		CHANNELS 6 Xposition Yposition Zposition Xrotation Yrotation Zrotation
		JOINT Joint3
		{
			OFFSET -0.000000 0.000002 1.471446
			CHANNELS 6 Xposition Yposition Zposition Xrotation Yrotation Zrotation
			JOINT Joint4
			{
				OFFSET 0.625745 0.000000 0.917755
				CHANNELS 6 Xposition Yposition Zposition Xrotation Yrotation Zrotation
				JOINT Joint5
				{
					OFFSET -0.629534 0.000001 0.940221
					CHANNELS 6 Xposition Yposition Zposition Xrotation Yrotation Zrotation
					JOINT Joint6
					{
						OFFSET -0.000001 0.113772 1.960660
						CHANNELS 6 Xposition Yposition Zposition Xrotation Yrotation Zrotation
						JOINT Joint7
						{
							OFFSET -0.669733 -0.113771 0.388340
							CHANNELS 6 Xposition Yposition Zposition Xrotation Yrotation Zrotation
							End Site
							{
								OFFSET 0.005509 0.005509 0.438980
							}
						}
					}
				}
			}
		}
	}
}
MOTION
Frames: 17
Frame Time: 0.041667
0.000000 0.000000 0.000000 -0.000000 1.019410 0.029546 -0.000000 0.000000 1.456275 -0.000000 -44.978387 0.000000 -0.000000 0.000002 1.471446 0.000000 -1.133458 -0.061914 0.625744 0.000000 0.917755 0.000004 134.997856 -0.000001 -0.629534 0.000001 0.940221 0.000000 1.709737 0.039613 -0.000001 0.113772 1.960660 -88.311662 89.976971 -0.005374 -0.669733 -0.113771 0.388341 -0.705536 3.566198 134.984701 
0.000000 0.000000 0.000000 -0.000000 1.019410 0.137107 -0.000000 -0.000000 1.456275 -0.000000 -44.975525 -0.000000 -0.000000 0.000002 1.471446 -0.000000 -1.133455 -0.148198 0.625744 0.000000 0.917754 0.000004 134.921194 -0.000001 -0.629534 0.000001 0.940221 -0.000000 1.709736 0.201213 -0.000000 0.113772 1.960660 -88.318014 89.986766 -0.009179 -0.669733 -0.113771 0.388340 -0.706602 3.566198 135.044670 
0.000000 0.000000 0.000000 -0.000000 1.019410 0.314568 -0.000000 -0.000000 1.456275 -0.000000 -44.970799 -0.000000 -0.000000 0.000002 1.471446 0.000000 -1.133458 -0.290555 0.625745 0.000000 0.917755 0.000004 134.794685 -0.000001 -0.629534 0.000001 0.940221 -0.000000 1.709737 0.467833 -0.000001 0.113772 1.960660 -88.239487 90.002912 0.042869 -0.669733 -0.113771 0.388339 -0.708359 3.566195 135.143598 
0.000000 0.000000 0.000000 -0.000000 1.019410 0.560452 -0.000000 -0.000000 1.456275 0.000000 -44.964255 0.000000 -0.000001 0.000002 1.471446 -0.000000 -1.133460 -0.487801 0.625745 0.000000 0.917755 0.000004 134.619422 -0.000001 -0.629534 0.000001 0.940221 -0.000000 1.709737 0.837255 -0.000001 0.113772 1.960660 -88.296109 90.025295 0.004978 -0.669733 -0.113771 0.388339 -0.710793 3.566185 135.280653 
0.000000 0.000000 0.000000 -0.000000 1.019410 0.873283 -0.000000 -0.000000 1.456275 -0.000000 -44.955929 -0.000000 -0.000000 0.000002 1.471446 -0.000000 -1.133460 -0.738750 0.625745 0.000000 0.917754 0.000004 134.396430 -0.000001 -0.629534 0.000001 0.940221 0.000000 1.709737 1.307257 -0.000000 0.113772 1.960661 -88.300433 90.053770 0.002320 -0.669733 -0.113771 0.388340 -0.713890 3.566166 135.455028 
0.000000 0.000000 0.000000 -0.000000 1.019410 1.251583 -0.000000 0.000000 1.456275 -0.000000 -44.945862 -0.000000 -0.000000 0.000002 1.471445 0.000000 -1.133459 -1.042217 0.625745 0.000000 0.917755 0.000004 134.126774 -0.000001 -0.629534 0.000001 0.940221 0.000000 1.709737 1.875621 -0.000000 0.113772 1.960660 -88.301772 90.088201 0.001467 -0.669733 -0.113771 0.388339 -0.717636 3.566129 135.665916 
0.000000 0.000000 0.000000 -0.000000 1.019410 1.693874 -0.000000 -0.000000 1.456275 0.000000 -44.934090 -0.000000 -0.000000 0.000002 1.471446 0.000000 -1.133458 -1.397017 0.625744 0.000000 0.917755 0.000004 133.811506 -0.000001 -0.629534 0.000001 0.940221 -0.000000 1.709736 2.540126 -0.000001 0.113772 1.960661 -88.302448 90.128465 0.000962 -0.669733 -0.113771 0.388340 -0.722015 3.566069 135.912459 
0.000000 0.000000 0.000000 -0.000000 1.019410 2.198679 -0.000000 0.000000 1.456275 -0.000000 -44.920658 -0.000001 -0.000000 0.000002 1.471445 0.000000 -1.133458 -1.801965 0.625744 0.000000 0.917755 0.000003 133.451678 -0.000001 -0.629534 0.000001 0.940220 -0.000000 1.709737 3.298554 -0.000000 0.113772 1.960661 -88.302803 90.174411 0.000709 -0.669733 -0.113771 0.388341 -0.727012 3.565978 136.193849 
0.000000 0.000000 0.000000 -0.000000 1.019410 2.764520 -0.000000 0.000000 1.456275 0.000000 -44.905588 0.000000 -0.000000 0.000002 1.471446 0.000000 -1.133456 -2.255876 0.625745 0.000000 0.917755 0.000004 133.048328 -0.000001 -0.629534 0.000001 0.940221 -0.000000 1.709736 4.148683 -0.000001 0.113772 1.960661 -88.303056 90.225918 0.000551 -0.669733 -0.113771 0.388341 -0.732613 3.565845 136.509267 
0.000000 0.000000 0.000000 -0.000000 1.019410 3.389921 -0.000000 0.000000 1.456275 -0.000000 -44.888953 -0.000000 -0.000001 0.000002 1.471446 0.000000 -1.133459 -2.757564 0.625745 0.000000 0.917755 0.000004 132.602549 -0.000001 -0.629534 0.000001 0.940221 -0.000000 1.709736 5.088295 -0.000001 0.113772 1.960661 -88.303213 90.282841 0.000442 -0.669733 -0.113771 0.388340 -0.738802 3.565664 136.857866 
0.000000 0.000000 0.000000 -0.000000 1.019410 4.073403 -0.000000 0.000000 1.456275 0.000000 -44.870757 0.000001 -0.000000 0.000002 1.471446 0.000000 -1.133455 -3.305844 0.625744 0.000000 0.917755 0.000003 132.115352 -0.000001 -0.629534 0.000001 0.940221 0.000000 1.709736 6.115170 -0.000001 0.113772 1.960661 -88.303356 90.345057 0.000343 -0.669733 -0.113771 0.388340 -0.745565 3.565422 137.238854 
0.000000 0.000000 0.000000 -0.000000 1.019410 4.812234 -0.000000 0.000000 1.456275 0.000000 -44.851093 -0.000000 -0.000000 0.000002 1.471446 -0.000001 -1.133460 -3.898525 0.625745 0.000000 0.917755 0.000004 131.588703 -0.000001 -0.629534 0.000001 0.940221 -0.000000 1.709736 7.225201 -0.000001 0.113772 1.960660 -88.303397 90.412307 0.000323 -0.669733 -0.113771 0.388339 -0.752874 3.565111 137.650701 
0.000000 0.000000 0.000000 -0.000000 1.019410 5.598661 -0.000000 -0.000000 1.456275 0.000000 -44.830158 -0.000000 -0.000000 0.000002 1.471446 0.000001 -1.133462 -4.529387 0.625744 0.000000 0.917755 0.000004 131.028136 -0.000002 -0.629534 0.000001 0.940221 0.000000 1.709737 8.406743 -0.000001 0.113772 1.960660 -88.303472 90.483894 0.000260 -0.669733 -0.113771 0.388340 -0.760650 3.564722 138.089076 
0.000000 0.000000 0.000000 -0.000000 1.019410 6.423677 -0.000000 0.000000 1.456275 -0.000000 -44.808206 0.000000 -0.000000 0.000002 1.471446 -0.000000 -1.133459 -5.191205 0.625745 0.000000 0.917755 0.000003 130.440057 -0.000001 -0.629533 0.000001 0.940221 -0.000000 1.709737 9.646263 -0.000001 0.113772 1.960660 -88.303568 90.558985 0.000216 -0.669733 -0.113771 0.388340 -0.768805 3.564250 138.548939 
0.000000 0.000000 0.000000 -0.000000 1.019410 7.278273 -0.000000 0.000000 1.456275 -0.000000 -44.785462 -0.000001 -0.000000 0.000002 1.471446 0.000000 -1.133458 -5.876750 0.625745 0.000000 0.917755 0.000004 129.830886 -0.000001 -0.629534 0.000001 0.940221 -0.000000 1.709737 10.930221 -0.000001 0.113772 1.960661 -88.303561 90.636774 0.000193 -0.669733 -0.113771 0.388340 -0.777248 3.563693 139.025318 
0.000000 0.000000 0.000000 -0.000000 1.019410 8.153440 -0.000000 -0.000000 1.456275 0.000000 -44.762164 -0.000001 -0.000000 0.000002 1.471446 -0.000000 -1.133458 -6.578798 0.625745 0.000000 0.917755 0.000004 129.207057 -0.000001 -0.629533 0.000001 0.940221 -0.000000 1.709737 12.245084 -0.000001 0.113772 1.960661 -88.303623 90.716435 0.000186 -0.669733 -0.113771 0.388340 -0.785889 3.563049 139.513143 
0.000000 0.000000 0.000000 -0.000000 1.019410 9.048825 -0.000000 -0.000000 1.456275 -0.000001 -44.738333 0.000000 -0.000000 0.000002 1.471446 -0.000000 -1.133458 -7.297066 0.625744 0.000000 0.917755 0.000004 128.568831 -0.000002 -0.629533 0.000001 0.940221 0.000000 1.709737 13.590327 -0.000000 0.113772 1.960661 -88.303602 90.797933 0.000141 -0.669733 -0.113771 0.388340 -0.794724 3.562316 140.012266 
